<?xml version="1.0" encoding="UTF-8" standalone="no"?>
<!DOCTYPE svg PUBLIC "-//W3C//DTD SVG 1.1//EN" "http://www.w3.org/Graphics/SVG/1.1/DTD/svg11.dtd">
<svg width="100%" height="100%" viewBox="0 0 2481 1749" version="1.1" xmlns="http://www.w3.org/2000/svg" xmlns:xlink="http://www.w3.org/1999/xlink" xml:space="preserve" xmlns:serif="http://www.serif.com/" style="fill-rule:evenodd;clip-rule:evenodd;stroke-linejoin:round;stroke-miterlimit:2;">
    <g transform="matrix(0.990335,-0.138696,0.138696,0.990335,-107.487,197.197)">
        <g transform="matrix(1,0,0,1,341.618,-64.8035)">
            <path d="M935.701,511.342C1100.16,229.146 1429.08,229.146 1593.55,370.244C1758.01,511.342 1803.51,825.532 1593.55,1075.73C1417.95,1284.99 1171.3,1491.39 935.701,1640.13C697.478,1481.97 427.811,1255.77 277.855,1075.73C68.82,824.764 113.394,511.342 277.855,370.244C442.317,229.146 771.24,229.146 935.701,511.342Z" style="fill:url(#_Linear1);"/>
        </g>
        <g transform="matrix(1.54261,0,0,1.68279,21.413,-470.443)">
            <g transform="matrix(325.706,0,0,325.706,375.552,868.603)">
                <path d="M0.028,-0.461C0.045,-0.451 0.067,-0.447 0.089,-0.447C0.128,-0.447 0.165,-0.459 0.164,-0.468C0.16,-0.53 0.199,-0.709 0.44,-0.709C0.721,-0.709 0.678,-0.383 0.398,-0.395C0.423,-0.451 0.453,-0.513 0.49,-0.583C0.506,-0.612 0.443,-0.646 0.397,-0.646C0.378,-0.646 0.362,-0.64 0.355,-0.627C0.289,-0.504 0.163,-0.262 0.163,-0.121C0.139,-0.135 0.123,-0.153 0.118,-0.176C0.117,-0.182 0.111,-0.187 0.102,-0.187C0.088,-0.187 0.068,-0.174 0.054,-0.133C0.031,-0.063 0.051,0.063 0.279,0.063C0.696,0.063 0.758,-0.275 0.612,-0.354C0.684,-0.372 0.746,-0.411 0.768,-0.486C0.841,-0.738 0.539,-0.787 0.432,-0.787C0.302,-0.787 0.134,-0.764 0.045,-0.671C-0.045,-0.578 -0.03,-0.495 0.028,-0.461ZM0.531,-0.224C0.5,-0.136 0.396,-0.096 0.3,-0.093C0.309,-0.141 0.329,-0.226 0.375,-0.34C0.451,-0.346 0.572,-0.339 0.531,-0.224Z" style="fill:white;fill-rule:nonzero;"/>
            </g>
            <g transform="matrix(325.706,0,0,325.706,634.814,868.603)">
                <path d="M0.41,-0.348C0.368,-0.253 0.313,-0.177 0.23,-0.177C0.139,-0.177 0.112,-0.245 0.133,-0.304C0.133,-0.304 0.159,-0.289 0.205,-0.289C0.288,-0.289 0.347,-0.337 0.347,-0.425C0.347,-0.519 0.287,-0.549 0.224,-0.549C0.089,-0.549 0.014,-0.383 0.001,-0.35C-0.09,-0.111 0.059,-0.045 0.159,-0.045C0.348,-0.045 0.429,-0.259 0.439,-0.305C0.448,-0.35 0.411,-0.35 0.41,-0.348ZM0.266,-0.469C0.313,-0.469 0.301,-0.341 0.204,-0.341C0.188,-0.341 0.17,-0.344 0.15,-0.352C0.182,-0.419 0.226,-0.469 0.266,-0.469Z" style="fill:white;fill-rule:nonzero;"/>
            </g>
            <g transform="matrix(325.706,0,0,325.706,768.027,868.603)">
                <path d="M0.607,-0.348C0.585,-0.297 0.539,-0.213 0.472,-0.213C0.4,-0.213 0.486,-0.411 0.521,-0.49C0.534,-0.519 0.475,-0.547 0.428,-0.547C0.405,-0.547 0.385,-0.54 0.377,-0.523C0.373,-0.515 0.369,-0.504 0.363,-0.492C0.338,-0.543 0.267,-0.549 0.238,-0.549C-0.018,-0.549 -0.117,-0.083 0.089,-0.083C0.17,-0.083 0.23,-0.134 0.273,-0.199C0.266,-0.119 0.287,-0.053 0.369,-0.044C0.528,-0.027 0.605,-0.192 0.631,-0.308C0.631,-0.308 0.64,-0.346 0.607,-0.348ZM0.178,-0.207C0.059,-0.207 0.182,-0.496 0.294,-0.476C0.347,-0.467 0.313,-0.372 0.299,-0.34C0.282,-0.299 0.241,-0.207 0.178,-0.207Z" style="fill:white;fill-rule:nonzero;"/>
            </g>
            <g transform="matrix(325.706,0,0,325.706,965.731,868.603)">
                <path d="M0.301,-0.348C0.279,-0.297 0.241,-0.226 0.175,-0.226C0.137,-0.226 0.139,-0.275 0.158,-0.347C0.173,-0.405 0.19,-0.459 0.207,-0.507L0.253,-0.507C0.284,-0.507 0.301,-0.555 0.255,-0.555L0.224,-0.555C0.249,-0.624 0.271,-0.674 0.279,-0.693C0.292,-0.722 0.231,-0.75 0.184,-0.75C0.161,-0.75 0.141,-0.743 0.134,-0.726C0.107,-0.657 0.086,-0.603 0.069,-0.556L0.02,-0.556C-0.024,-0.556 -0.034,-0.507 -0.006,-0.507L0.052,-0.507C0.031,-0.445 0.015,-0.397 0,-0.347C-0.043,-0.213 -0.054,-0.079 0.073,-0.065C0.232,-0.047 0.298,-0.192 0.325,-0.308C0.325,-0.308 0.334,-0.346 0.301,-0.348Z" style="fill:white;fill-rule:nonzero;"/>
            </g>
        </g>
        <g transform="matrix(2.15017,0,0,1.74868,619.159,-1085.11)">
            <g transform="matrix(325.706,0,0,325.706,464.644,1148.64)">
                <path d="M0.298,-0.535L0.307,-0.153C0.308,-0.108 0.309,-0.056 0.31,0.002C0.31,0.061 0.311,0.106 0.312,0.137C0.312,0.168 0.313,0.186 0.313,0.191L0.319,0.225L0.345,0.087C0.355,0.035 0.363,-0.019 0.369,-0.074C0.376,-0.139 0.381,-0.173 0.384,-0.177C0.385,-0.178 0.389,-0.179 0.395,-0.179C0.4,-0.179 0.407,-0.178 0.416,-0.177L0.43,-0.174L0.431,-0.082C0.431,-0.073 0.431,-0.064 0.433,-0.057C0.435,-0.049 0.437,-0.043 0.438,-0.039C0.44,-0.035 0.442,-0.033 0.443,-0.033C0.446,-0.033 0.454,-0.047 0.467,-0.074C0.48,-0.102 0.49,-0.124 0.496,-0.143C0.512,-0.188 0.525,-0.212 0.533,-0.217C0.535,-0.218 0.537,-0.219 0.54,-0.219C0.549,-0.219 0.556,-0.21 0.561,-0.191C0.567,-0.173 0.571,-0.149 0.576,-0.119C0.58,-0.088 0.582,-0.073 0.582,-0.072L0.585,-0.072C0.595,-0.072 0.63,-0.073 0.688,-0.075C0.746,-0.076 0.789,-0.077 0.815,-0.077C0.851,-0.077 0.868,-0.076 0.868,-0.073C0.868,-0.073 0.865,-0.07 0.858,-0.066C0.843,-0.058 0.765,-0.044 0.626,-0.025C0.599,-0.021 0.582,-0.02 0.573,-0.02C0.547,-0.02 0.532,-0.036 0.526,-0.068C0.524,-0.085 0.521,-0.094 0.517,-0.094C0.513,-0.094 0.506,-0.077 0.494,-0.045C0.477,0.004 0.456,0.028 0.434,0.028C0.423,0.028 0.412,0.023 0.401,0.014C0.397,0.01 0.393,0.008 0.389,0.008C0.387,0.008 0.386,0.008 0.386,0.009C0.384,0.011 0.379,0.039 0.37,0.093C0.36,0.146 0.352,0.197 0.345,0.244C0.339,0.279 0.327,0.297 0.31,0.297C0.306,0.297 0.301,0.296 0.295,0.295C0.273,0.29 0.258,0.262 0.25,0.212C0.241,0.163 0.236,0.064 0.232,-0.082L0.227,-0.308L0.206,-0.171C0.194,-0.093 0.185,-0.042 0.179,-0.017C0.173,0.007 0.165,0.022 0.155,0.027C0.147,0.032 0.138,0.034 0.129,0.034C0.102,0.034 0.081,0.001 0.066,-0.064C0.051,-0.126 0.044,-0.163 0.044,-0.175C0.044,-0.188 0.048,-0.198 0.056,-0.206C0.065,-0.216 0.073,-0.221 0.078,-0.221C0.083,-0.221 0.088,-0.215 0.092,-0.204C0.096,-0.193 0.1,-0.176 0.105,-0.152C0.111,-0.129 0.115,-0.112 0.118,-0.101C0.128,-0.067 0.134,-0.05 0.138,-0.05C0.138,-0.05 0.141,-0.055 0.145,-0.064C0.147,-0.071 0.153,-0.096 0.162,-0.139C0.171,-0.182 0.179,-0.221 0.185,-0.255C0.196,-0.325 0.209,-0.387 0.222,-0.439C0.224,-0.448 0.226,-0.458 0.228,-0.471C0.23,-0.483 0.232,-0.493 0.233,-0.5C0.235,-0.507 0.237,-0.514 0.239,-0.522C0.242,-0.529 0.245,-0.535 0.25,-0.538C0.254,-0.541 0.259,-0.543 0.267,-0.543C0.276,-0.543 0.287,-0.54 0.298,-0.535Z" style="fill:white;fill-rule:nonzero;"/>
            </g>
        </g>
    </g>
    <defs>
        <linearGradient id="_Linear1" x1="0" y1="0" x2="1" y2="0" gradientUnits="userSpaceOnUse" gradientTransform="matrix(1562.38,0,0,1410.98,154.509,934.636)"><stop offset="0" style="stop-color:rgb(255,28,55);stop-opacity:1"/><stop offset="1" style="stop-color:rgb(143,0,170);stop-opacity:1"/></linearGradient>
    </defs>
</svg>
